<svg width="30" height="30" viewBox="0 0 30 30" fill="none" xmlns="http://www.w3.org/2000/svg">
<path d="M5 16.5H12.5C13.1875 16.5 13.75 15.9375 13.75 15.25V5.25C13.75 4.5625 13.1875 4 12.5 4H5C4.3125 4 3.75 4.5625 3.75 5.25V15.25C3.75 15.9375 4.3125 16.5 5 16.5ZM5 26.5H12.5C13.1875 26.5 13.75 25.9375 13.75 25.25V20.25C13.75 19.5625 13.1875 19 12.5 19H5C4.3125 19 3.75 19.5625 3.75 20.25V25.25C3.75 25.9375 4.3125 26.5 5 26.5ZM17.5 26.5H25C25.6875 26.5 26.25 25.9375 26.25 25.25V15.25C26.25 14.5625 25.6875 14 25 14H17.5C16.8125 14 16.25 14.5625 16.25 15.25V25.25C16.25 25.9375 16.8125 26.5 17.5 26.5ZM16.25 5.25V10.25C16.25 10.9375 16.8125 11.5 17.5 11.5H25C25.6875 11.5 26.25 10.9375 26.25 10.25V5.25C26.25 4.5625 25.6875 4 25 4H17.5C16.8125 4 16.25 4.5625 16.25 5.25Z" fill="#686868"/>
</svg>
