<svg width="30" height="36" viewBox="0 0 30 36" fill="none" xmlns="http://www.w3.org/2000/svg">
<path d="M28.6457 25.7996C26.6047 23.2308 25.1638 21.9231 25.1638 14.8411C25.1638 8.35577 21.9434 6.04524 19.2928 4.92308C18.9407 4.77433 18.6093 4.43269 18.502 4.06082C18.037 2.43356 16.7336 1 15.0009 1C13.2683 1 11.9641 2.43438 11.5039 4.06245C11.3966 4.43841 11.0652 4.77433 10.7131 4.92308C8.05934 6.04688 4.84206 8.34923 4.84206 14.8411C4.83809 21.9231 3.39715 23.2308 1.35616 25.7996C0.51051 26.8637 1.25125 28.4615 2.73033 28.4615H27.2795C28.7507 28.4615 29.4866 26.8588 28.6457 25.7996ZM20.0875 28.4615V29.7692C20.0875 31.1565 19.5516 32.487 18.5977 33.4679C17.6438 34.4489 16.35 35 15.0009 35C13.6519 35 12.3581 34.4489 11.4042 33.4679C10.4503 32.487 9.91435 31.1565 9.91435 29.7692V28.4615" fill="#0870BA"/>
<path d="M20.0875 28.4615V29.7692C20.0875 31.1565 19.5516 32.487 18.5977 33.4679C17.6438 34.4489 16.35 35 15.0009 35C13.6519 35 12.3581 34.4489 11.4042 33.4679C10.4503 32.487 9.91435 31.1565 9.91435 29.7692V28.4615M28.6457 25.7996C26.6047 23.2308 25.1638 21.9231 25.1638 14.8411C25.1638 8.35577 21.9434 6.04524 19.2928 4.92308C18.9407 4.77433 18.6093 4.43269 18.502 4.06082C18.037 2.43356 16.7336 1 15.0009 1C13.2683 1 11.9641 2.43438 11.5039 4.06245C11.3966 4.43841 11.0652 4.77433 10.7131 4.92308C8.05934 6.04687 4.84206 8.34923 4.84206 14.8411C4.83809 21.9231 3.39715 23.2308 1.35616 25.7996C0.51051 26.8637 1.25125 28.4615 2.73033 28.4615H27.2795C28.7507 28.4615 29.4866 26.8588 28.6457 25.7996Z" stroke="#0870BA" stroke-width="1.875" stroke-linecap="round" stroke-linejoin="round"/>
</svg>
