<svg width="30" height="30" viewBox="0 0 30 30" fill="none" xmlns="http://www.w3.org/2000/svg">
<path d="M12.2362 1.00815C12.0845 1.03055 11.9397 1.08584 11.8119 1.1701C11.8119 1.1701 10.4897 1.99646 9.06817 2.89031C7.64666 3.78312 6.06524 4.76728 5.7036 4.96661C5.68129 4.97622 5.65933 4.98661 5.63775 4.99775C4.32495 5.80232 4.05214 7.11661 4.00511 7.8537C4.00197 7.88796 4.00511 7.91599 4.00511 7.95232C3.99361 8.22847 4.00511 8.40599 4.00511 8.40599V21.9673C4.00511 23.9377 6.31819 24.8856 8.51315 24.8856C9.24481 24.8856 9.97647 24.7682 10.6036 24.5606C11.0217 24.353 11.3217 23.9377 11.3217 23.5225V12.6219C11.3217 10.2342 11.8443 9.11297 13.4121 8.17864C13.8302 7.97101 18.2139 4.96557 18.2139 4.96557C18.4229 4.75794 18.6382 4.33645 18.6382 4.02501V3.92742C18.6382 3.51216 18.4292 3.19449 18.1156 2.98686C17.802 2.77923 17.384 2.77923 17.0704 2.98686C16.9659 3.09067 10.59 7.35435 9.23122 8.08105C7.87243 8.91157 6.60458 9.11193 6.29101 8.69667C6.1938 8.60012 6.10914 8.30425 6.09555 8.01565V7.95024C6.0966 7.66787 6.16977 7.13634 6.74882 6.78233C7.33623 6.45739 8.79432 5.5324 10.2116 4.64167C10.8106 4.26482 10.8848 4.22433 11.3541 3.92742C11.4158 4.18103 11.5715 4.40224 11.7901 4.54701C12.0086 4.69177 12.2741 4.74948 12.5336 4.70864C12.793 4.66781 13.0275 4.53142 13.1903 4.32663C13.3531 4.12185 13.4323 3.86368 13.4121 3.60352V2.04629C13.4133 1.89832 13.3826 1.75181 13.3221 1.61658C13.2616 1.48136 13.1727 1.36054 13.0613 1.26223C12.95 1.16392 12.8187 1.09039 12.6764 1.04656C12.5341 1.00274 12.3841 0.989645 12.2362 1.00815ZM20.598 4.64167C20.4318 4.66912 20.2747 4.73608 20.1402 4.83684C20.1402 4.83684 14.8786 8.35305 13.9671 8.95621C13.9561 8.96704 13.9453 8.97812 13.9347 8.98943C13.178 9.55314 12.7296 10.2238 12.5299 10.8373C12.4181 11.1835 12.363 11.5452 12.3669 11.9087V12.2336C12.3654 12.2658 12.3654 12.298 12.3669 12.3302V24.8856C12.3669 26.858 14.6538 28 16.7443 28C17.685 28 18.5337 27.7986 19.1608 27.3833C20.4151 26.6566 26.4774 21.9663 26.4774 21.9663C26.791 21.7587 27 21.4659 27 21.1545V7.65852C27 7.13945 26.7972 6.82801 26.3791 6.62038C26.0656 6.41275 25.5503 6.51033 25.2367 6.71796C23.5644 7.96374 19.0626 11.481 18.0174 12.1039C16.554 12.9344 15.1754 13.142 14.6528 12.6229C14.4437 12.4153 14.4573 12.2201 14.4573 11.9087C14.4636 11.7301 14.4835 11.5765 14.5232 11.454C14.5817 11.2734 14.7009 11.0512 15.143 10.7086C15.1639 10.692 15.1535 10.693 15.1754 10.6764C15.9311 10.175 18.2421 8.61051 19.7493 7.59312C19.8347 7.82065 19.9977 8.01125 20.2099 8.13177C20.4221 8.25229 20.6702 8.2951 20.9109 8.25277C21.1517 8.21043 21.3698 8.08561 21.5275 7.90003C21.6852 7.71445 21.7724 7.47985 21.7739 7.23704V5.67981C21.7751 5.53184 21.7444 5.38533 21.6839 5.2501C21.6234 5.11487 21.5345 4.99406 21.4231 4.89575C21.3118 4.79744 21.1805 4.7239 21.0382 4.68008C20.8959 4.63626 20.7458 4.62316 20.598 4.64167ZM24.9096 12.2336V14.3099L19.6834 18.3317V16.2554L24.9096 12.2336Z" fill="#686868"/>
</svg>
