<svg width="93" height="96" viewBox="0 0 93 96" fill="none" xmlns="http://www.w3.org/2000/svg">
<path d="M86.8208 95.2438H19.6756C18.0797 95.2438 18.4643 94.1315 18.4643 92.7637V6.56022C18.4643 5.19243 19.7622 4.08008 21.3581 4.08008H88.0418C90.6569 4.08008 92.7816 5.90105 92.7816 8.14224V90.3412C92.7816 93.5217 91.0222 95.2438 86.8208 95.2438Z" fill="#01579B"/>
<path d="M2.70667 89.856C2.70667 91.4545 5.65821 92.7976 7.52335 92.7976L84.8115 92.7564C87.6765 92.7564 89.1763 91.4545 89.1763 89.856L88.9359 72.2891H2.70667V89.856Z" fill="#94C6D6"/>
<path d="M82.4463 82.2253C82.4463 82.2253 80.3985 87.0455 82.4751 89.4598C84.8883 92.2613 89.0993 91.5856 89.0993 90.2755V8.5297C89.0993 7.98588 88.5128 7.59038 87.8975 7.70574C86.5611 7.95293 84.1576 7.96117 80.9657 6.14844L82.4463 82.2253Z" fill="#F5F5F5"/>
<path d="M75.4183 86.321H7.61938V0.298828H77.0816C79.264 0.298828 80.8022 0.801448 81.5233 1.63365C82.4655 2.71305 82.9654 4.35275 82.9654 6.149V79.8529C82.9654 81.5683 82.1703 83.2135 80.7549 84.4265C79.3396 85.6395 77.4199 86.321 75.4183 86.321Z" fill="#01579B"/>
<path d="M73.3514 83.791H9.44614C6.79264 83.791 4.64868 81.9453 4.64868 79.6794V4.41824C4.64868 2.14409 6.80225 0.306641 9.44614 0.306641H73.3514C77.024 0.306641 80.0043 2.10289 80.0043 6.00849V78.0974C79.9947 81.2367 77.024 83.791 73.3514 83.791Z" fill="#0091EA"/>
<path d="M17.9931 85.4142L17.945 0.306639H7.17718C7.17718 0.306639 4.95631 -0.0229476 3.47574 0.306639C0.793389 0.908135 0.0531006 2.58079 0.0531006 5.30812V83.0989C0.0531006 88.6195 0.447279 91.009 2.39895 92.7558C2.28358 91.4869 3.23538 87.1281 4.01413 85.9333C4.70635 84.8786 17.9931 85.4142 17.9931 85.4142Z" fill="#616161"/>
<path d="M7.17725 0.298828V86.321" stroke="#424242" stroke-width="0.46875" stroke-miterlimit="10"/>
<path d="M17.9451 85.0762L7.08109 85.2574C3.45656 85.2574 2.21634 88.5863 2.86048 90.7863C3.66807 93.563 7.01379 94.0162 7.84061 94.0162H20.0025" stroke="#424242" stroke-width="0.703125" stroke-miterlimit="10"/>
</svg>
