<svg width="176" height="273" viewBox="0 0 176 273" fill="none" xmlns="http://www.w3.org/2000/svg">
<path d="M129.526 19.9143L140.024 23.9609C140.024 23.9609 143.415 15.143 152.642 18.4983C154.432 19.1135 155.986 20.2721 157.087 21.8126C158.187 23.353 158.78 25.1986 158.782 27.0919C158.806 28.6811 158.454 30.2534 157.755 31.681C157.057 33.1086 156.031 34.351 154.761 35.3071C151.847 37.556 146.765 39.0045 140.206 35.0446L131.2 58.4367L141.629 62.4443L146.968 48.5801C146.968 48.5801 162.894 50.3978 169.112 34.3678C175.024 19.0097 162.086 9.9351 154.923 7.18196C150.463 5.457 136.454 1.32301 129.526 19.9143Z" fill="#EDEDED"/>
<path d="M129.305 63.2937L125.515 73.1348L136.046 77.1897L139.835 67.3487L129.305 63.2937Z" fill="#EDEDED"/>
<path d="M125.341 18.3067L135.82 22.3482C135.82 22.3482 139.258 13.5431 148.447 16.8881C150.235 17.506 151.786 18.6652 152.885 20.2048C153.983 21.7443 154.575 23.5877 154.579 25.4791C154.612 27.0691 154.268 28.6442 153.575 30.0756C152.882 31.5069 151.86 32.7538 150.592 33.7139C147.678 35.9627 142.755 37.1266 136.159 33.1565L127.045 56.8275L137.428 60.8223L142.767 46.9581C142.767 46.9581 158.748 48.7912 164.912 32.7761C170.822 17.4273 158.433 8.5646 152.541 6.29322C148.041 4.5277 132.271 -0.293821 125.341 18.3067Z" fill="#D4D4D4"/>
<path d="M125.106 61.6746L121.317 71.5156L131.847 75.5706L135.637 65.7296L125.106 61.6746Z" fill="#D4D4D4"/>
<path d="M26.9535 103.475C28.6584 102.007 31.0785 101.598 32.8154 100.168C34.5522 98.7373 35.3696 96.4321 35.4973 94.1844C35.5067 91.9322 35.1773 89.6914 34.5203 87.5371L53.0957 110.851C51.6206 113.405 50.0307 116.01 47.7191 117.875C45.4076 119.739 42.202 120.729 39.418 119.72C36.6339 118.711 34.7438 115.25 36.0273 112.6C33.5306 114.918 29.1948 114.963 26.7619 112.6C24.3291 110.238 24.3674 105.697 26.9535 103.475Z" fill="#263238"/>
<path d="M38.99 94.1472C35.6057 88.0682 32.2278 81.9318 29.9354 75.3611C27.643 68.7904 26.4617 61.7025 27.5791 54.8317C27.7452 53.7845 29.5395 46.6711 30.5931 46.5689C31.3402 46.4987 30.6442 52.9544 31.1422 53.5099C35.8994 58.9121 38.3068 66.0638 39.1241 73.2156C39.8617 80.1759 39.8167 87.1969 38.99 94.1472Z" fill="#263238"/>
<path d="M46.1483 131.094L33.1857 68.2221C29.2587 51.2112 35.8868 34.743 52.9807 31.2885L54.5835 31.065C62.3486 29.9604 70.2448 31.8209 76.6998 36.2761C83.1548 40.7313 87.695 47.4543 89.4163 55.1063C92.7368 69.8696 96.2233 86.2228 97.2577 94.2494C99.4032 110.852 83.2096 115.794 83.2096 115.794C83.2096 115.794 86.2427 132.562 87.1431 137.396L62.0801 140.589L56.0458 141.132L46.1483 131.094Z" fill="#FFCAAF"/>
<path d="M83.2031 115.793C83.2031 115.793 72.8331 117.894 60.7007 112.473C60.7007 112.473 67.6609 124.209 84.0013 120.365L83.2031 115.793Z" fill="#FAA47C"/>
<path d="M86.3834 75.0922C86.4787 75.7048 86.3322 76.3303 85.9747 76.8368C85.6172 77.3432 85.0768 77.6908 84.4678 77.8061C84.1698 77.8733 83.8614 77.8801 83.5608 77.8261C83.2601 77.7721 82.9734 77.6584 82.7174 77.4917C82.4615 77.3251 82.2415 77.1088 82.0705 76.8557C81.8996 76.6026 81.7811 76.3178 81.722 76.0181C81.6281 75.4051 81.7752 74.7795 82.1323 74.2724C82.4894 73.7654 83.0288 73.4161 83.6376 73.2979C83.936 73.2308 84.2449 73.2242 84.5459 73.2786C84.8468 73.333 85.1338 73.4473 85.3899 73.6146C85.6459 73.7819 85.8658 73.9989 86.0364 74.2527C86.2071 74.5065 86.3251 74.792 86.3834 75.0922Z" fill="#263238"/>
<path d="M86.9449 64.8767C86.6959 65.2279 84.7164 64.1551 82.1686 64.5255C79.6208 64.8959 77.935 66.4411 77.6093 66.1602C77.4561 66.0389 77.6732 65.4386 78.4075 64.7298C79.4029 63.8099 80.6588 63.221 82.0025 63.0441C83.315 62.8474 84.6561 63.0709 85.8338 63.6826C86.7278 64.1679 87.0726 64.6851 86.9449 64.8767Z" fill="#263238"/>
<path d="M64.4172 78.2094C64.5109 78.8217 64.3637 79.4464 64.0065 79.9525C63.6493 80.4585 63.1099 80.8065 62.5016 80.9232C62.2032 80.9894 61.8947 80.9953 61.594 80.9406C61.2933 80.8858 61.0067 80.7714 60.7508 80.6043C60.495 80.4371 60.2752 80.2204 60.1043 79.9671C59.9334 79.7137 59.815 79.4287 59.7558 79.1289C59.6646 78.5122 59.8168 77.8842 60.1803 77.3778C60.5438 76.8713 61.09 76.5261 61.7034 76.4151C61.9995 76.3536 62.3048 76.3513 62.6018 76.4083C62.8988 76.4653 63.1815 76.5806 63.4338 76.7474C63.686 76.9141 63.9028 77.1292 64.0716 77.3801C64.2404 77.631 64.3578 77.9129 64.4172 78.2094Z" fill="#263238"/>
<path d="M62.0476 68.9817C61.7986 69.3329 59.8127 68.2601 57.2649 68.6241C54.7171 68.9881 53.0313 70.5398 52.7121 70.2588C52.5524 70.1439 52.7695 69.5436 53.5039 68.8348C54.4993 67.914 55.7549 67.323 57.0989 67.1427C58.4114 66.9442 59.753 67.1678 60.9302 67.7812C61.8242 68.2985 62.169 68.8221 62.0476 68.9817Z" fill="#263238"/>
<path d="M73.9696 89.1845C73.9377 89.0376 75.483 88.5459 77.9989 87.8499C78.6374 87.6903 79.2376 87.4732 79.276 87.0134C79.3143 86.5536 78.9886 85.8576 78.5672 85.1488L75.9363 80.4619C72.2647 73.7827 69.5062 68.2592 69.7744 68.1124C70.0425 67.9655 73.2417 73.2591 76.9197 79.9383L79.4739 84.6635C79.8251 85.3659 80.3679 86.145 80.1763 87.1667C80.1136 87.4098 79.9965 87.6355 79.8339 87.8268C79.6713 88.0182 79.4675 88.1702 79.2376 88.2713C78.8927 88.4211 78.5301 88.5263 78.1585 88.5842C75.5979 89.0887 73.9952 89.3249 73.9696 89.1845Z" fill="#263238"/>
<path d="M61.7414 60.8917C61.486 61.5941 58.919 61.2557 55.8987 61.6197C52.8783 61.9836 50.4327 62.8074 50.0304 62.1752C49.8516 61.8751 50.2794 61.2174 51.2628 60.5405C52.5797 59.7065 54.0699 59.1849 55.6194 59.0156C57.1689 58.8462 58.7366 59.0337 60.2025 59.5635C61.2944 60.0105 61.8499 60.5597 61.7414 60.8917Z" fill="#263238"/>
<path d="M86.6895 60.6681C86.2553 61.3067 84.0906 61.0577 81.5811 61.4216C79.0716 61.7856 77.041 62.5327 76.4727 62.0027C76.2109 61.7409 76.4727 61.1087 77.29 60.4191C78.4588 59.5604 79.826 59.0117 81.2642 58.8241C82.7023 58.6365 84.1646 58.8162 85.5145 59.3463C86.4979 59.7997 86.881 60.3489 86.6895 60.6681Z" fill="#263238"/>
<path d="M36.2826 80.3091C35.9825 80.2261 24.412 78.5531 26.3787 89.8427C28.3454 101.132 39.2902 96.8029 39.2391 96.4964C39.188 96.1899 36.2826 80.3091 36.2826 80.3091Z" fill="#FFCAAF"/>
<path d="M35.0437 92.8257C34.9927 92.7938 34.8713 92.9981 34.5648 93.2089C34.1328 93.4899 33.608 93.5907 33.1026 93.4898C31.8255 93.2663 30.4973 91.5422 30.0886 89.518C29.8952 88.5549 29.9148 87.5611 30.1461 86.6063C30.1925 86.236 30.3276 85.8825 30.54 85.5756C30.7523 85.2688 31.0356 85.0178 31.3657 84.8439C31.583 84.7367 31.8316 84.7112 32.0661 84.7722C32.3006 84.8331 32.5053 84.9764 32.6428 85.1759C32.8535 85.4696 32.8152 85.7059 32.8791 85.7123C32.9429 85.7187 33.0898 85.4824 32.9174 85.0291C32.8069 84.7572 32.6062 84.5318 32.3491 84.3905C31.9978 84.2095 31.5891 84.1751 31.2125 84.2947C30.3504 84.5054 29.7119 85.4441 29.4628 86.4019C29.1556 87.463 29.1118 88.5831 29.3351 89.6649C29.8013 91.9254 31.3402 93.8538 33.0515 94.039C33.3714 94.0713 33.6945 94.0306 33.9965 93.92C34.2984 93.8094 34.5713 93.6317 34.7947 93.4004C35.0757 93.1003 35.0884 92.8385 35.0437 92.8257Z" fill="#FAA47C"/>
<path d="M78.7142 37.7757C80.3553 36.4348 73.7974 31.5307 68.938 30.3239C61.6011 28.4785 50.9118 28.4785 44.9861 31.4158C37.8599 34.9342 32.2981 39.8191 29.7822 47.3795C27.2663 54.9399 27.311 63.1517 28.9649 70.9228C29.4693 73.2982 30.1717 75.7375 31.8128 77.519C33.8434 79.722 36.321 80.5393 37.6555 84.1982C38.0897 85.3987 38.4282 86.663 39.4562 87.4229C41.921 89.2364 44.0666 86.7141 44.8456 84.4345C46.5122 79.5624 45.8226 74.2177 45.1074 69.1476C44.6029 65.5207 44.0729 61.8235 42.4255 58.5605C41.5315 56.7853 40.3183 55.1698 39.5265 53.3436C38.7347 51.5173 38.3899 49.3462 39.2902 47.5966C39.5031 47.2107 39.7511 46.8452 40.0309 46.5047C41.3511 44.8436 43.0898 43.564 45.0683 42.7975C47.0469 42.031 49.1938 41.8052 51.2885 42.1434C58.0444 43.2226 69.4999 44.5827 71.9328 41.9135C75.4384 38.0822 76.0387 35.8665 76.0387 35.8665L78.7142 37.7757Z" fill="#263238"/>
<path d="M72.3425 98.5872C72.6116 98.2982 74.4325 100.199 77.352 99.9936C80.2716 99.7879 82.1072 97.667 82.3631 97.8967C82.5001 97.9905 82.2771 98.714 81.4276 99.5397C80.3367 100.625 78.8971 101.291 77.3632 101.418C75.8891 101.533 74.4279 101.07 73.2892 100.127C72.4374 99.3783 72.1815 98.7146 72.3425 98.5872Z" fill="#263238"/>
<path d="M38.6961 63.2922C38.2949 63.3573 37.8846 63.3421 37.4893 63.2475C36.524 63.0902 35.5917 62.7729 34.7307 62.3088C33.8678 61.8483 33.0868 61.2485 32.4192 60.5336C32.1239 60.2566 31.8854 59.9248 31.7168 59.5566C33.5552 61.5535 36.0149 62.87 38.6961 63.2922Z" fill="#263238"/>
<path d="M55.9242 42.1177C55.4399 41.0598 54.8963 40.0301 54.2959 39.0335C53.6035 38.1006 52.8617 37.2053 52.0737 36.3516C54.06 37.6857 55.4374 39.7519 55.905 42.0985L55.9242 42.1177Z" fill="#263238"/>
<path d="M71.109 38.3056C71.0633 37.1455 70.808 36.0032 70.3556 34.934C69.8099 33.9113 69.0779 32.9996 68.1973 32.2457C68.1973 32.2074 68.5932 32.3671 69.104 32.7821C69.7556 33.3346 70.2835 34.0182 70.6532 34.7884C71.0229 35.5585 71.2261 36.398 71.2495 37.252C71.2884 37.6094 71.2402 37.9708 71.109 38.3056Z" fill="#263238"/>
<path d="M66.3071 140.639C66.2752 140.639 66.3071 140.141 66.2752 139.234C66.2197 137.963 66.0487 136.7 65.7643 135.46C65.3325 133.62 64.7472 131.82 64.0147 130.077C63.2101 128.098 62.1821 125.978 61.1668 123.692C60.2224 121.672 59.4347 119.582 58.8105 117.44V117.319L58.9191 117.262C60.276 116.557 61.4702 115.576 62.4247 114.382L62.4886 114.299L62.5844 114.35C63.5816 114.899 64.7025 115.185 65.841 115.18H65.8984V115.231C66.2767 115.902 66.7239 116.531 67.233 117.108C67.5842 117.517 67.7949 117.747 67.7821 117.747C67.7694 117.747 67.7183 117.709 67.6097 117.619C67.5012 117.53 67.3479 117.383 67.1628 117.191C66.6148 116.632 66.1367 116.008 65.7388 115.333L65.8218 115.384C64.6435 115.417 63.4772 115.142 62.4375 114.586H62.5971C61.6378 115.828 60.4226 116.85 59.034 117.581L59.1107 117.402C59.7494 119.521 60.539 121.59 61.4733 123.596C62.4886 125.85 63.5103 127.977 64.3021 129.982C65.0299 131.743 65.5983 133.566 66.0006 135.428C66.2672 136.688 66.4041 137.972 66.4093 139.26C66.412 139.609 66.3971 139.959 66.3646 140.307C66.3615 140.42 66.3421 140.532 66.3071 140.639Z" fill="#FAA47C"/>
<path d="M15.4531 142.249L41.4804 126.623C41.4804 126.623 61.6713 139.924 74.8445 135.046C83.7395 131.757 83.7395 119.721 83.7395 119.721L109.313 119.81L131.95 189.118L137.742 272.059H24.4694L19.9038 174.706L15.4531 142.249Z" fill="#117CFF"/>
<g opacity="0.3">
<path d="M23.4224 251.722C31.334 258.427 41.6721 261.716 51.9847 262.782C62.2972 263.848 72.6928 262.84 83.0117 261.837C100.827 260.1 119.007 260.56 136.822 258.849C136.318 254.379 135.871 243.281 135.366 238.83L23.4224 246.863V251.722Z" fill="black"/>
</g>
<path d="M14.1441 218.211C14.1441 218.211 11.6921 217.03 10.4789 218.256C9.63831 219.173 8.93303 220.205 8.38442 221.321C8.38442 221.321 4.44456 220.14 2.80988 223.409C2.80988 223.409 -0.13383 225.267 1.60941 228.92C1.60941 228.92 -1.53864 233.313 0.97086 237.112C1.25146 237.567 1.59791 237.978 1.99893 238.332C1.99893 238.332 3.18024 242.91 4.75745 243.677C6.33467 244.443 11.9667 246.161 12.1582 243.581C12.3498 241.001 11.3409 241.237 11.3409 241.237C11.3409 241.237 18.001 244.845 20.951 247.501C23.9011 250.158 31.6531 254.091 36.4359 254.079C41.2186 254.066 39.1752 243.785 39.1752 243.785L14.1441 218.211Z" fill="#FFCAAF"/>
<path d="M120.897 169.471C120.584 171.035 120.328 179.477 120.328 179.477L125.852 214.412C114.952 216.672 61.3582 227.54 61.3582 227.54L56.3584 253.887C56.3584 253.887 140.647 252.329 150.046 243.568C159.446 234.807 154.676 199.368 154.676 195.926C154.676 192.484 152.358 169.707 152.358 169.707L120.897 169.471Z" fill="#FFCAAF"/>
<path d="M3.71004 229.461C4.00486 229.548 4.29124 229.661 4.5657 229.799L6.8517 230.84L10.2232 232.417L11.1938 232.877L11.6983 233.113C11.9116 233.196 12.0883 233.352 12.1964 233.554C12.2249 233.618 12.2396 233.688 12.2396 233.758C12.2396 233.829 12.2249 233.898 12.1964 233.963C12.1417 234.08 12.0526 234.178 11.9409 234.244C11.7462 234.357 11.5274 234.423 11.3024 234.435C10.8963 234.492 10.4855 234.507 10.0764 234.48C8.42253 234.371 6.95387 233.841 5.60653 233.624C4.97578 233.483 4.32164 233.483 3.69089 233.624C3.42362 233.696 3.17316 233.819 2.95396 233.988C2.73476 234.157 2.55117 234.368 2.41379 234.608C2.0252 235.334 1.85238 236.156 1.91572 236.977C1.93782 237.283 1.93782 237.59 1.91572 237.896C1.83532 237.598 1.7882 237.292 1.77524 236.983C1.66665 236.129 1.81562 235.262 2.20307 234.493C2.34697 234.223 2.54294 233.984 2.77967 233.79C3.0164 233.596 3.2892 233.45 3.58234 233.362C4.25264 233.209 4.94901 233.209 5.61931 233.362C7.01773 233.573 8.49278 234.09 10.0891 234.193C10.4768 234.218 10.8661 234.206 11.2513 234.154C11.6153 234.154 11.9856 233.931 11.8898 233.726C11.7941 233.522 11.3599 233.375 11.047 233.209L10.0828 232.737L6.72399 231.051L4.48269 229.921C4.21102 229.793 3.95228 229.639 3.71004 229.461Z" fill="#FAA47C"/>
<path d="M14.2717 227.54C13.7259 227.276 13.1951 226.982 12.6817 226.659C10.1311 225.236 7.35955 224.252 4.48276 223.747C3.88118 223.672 3.28427 223.563 2.69482 223.422C3.30519 223.377 3.91869 223.409 4.52107 223.517C5.98591 223.707 7.42646 224.052 8.8185 224.545C10.2095 225.039 11.5432 225.682 12.7967 226.461C13.3336 226.755 13.8295 227.117 14.2717 227.54Z" fill="#FAA47C"/>
<path d="M13.6204 222.999C12.7318 222.742 11.865 222.416 11.0279 222.022C10.4273 221.784 9.80785 221.596 9.17607 221.46C8.90637 221.434 8.64067 221.376 8.38428 221.288C8.38428 221.243 8.69716 221.179 9.21438 221.224C9.87236 221.296 10.5171 221.46 11.13 221.709C12.022 222.008 12.8621 222.443 13.6204 222.999Z" fill="#FAA47C"/>
<path d="M11.8964 241.512C11.5114 241.568 11.1192 241.55 10.7406 241.46C9.82293 241.306 8.9255 241.049 8.06509 240.694C7.2055 240.351 6.36746 239.957 5.55559 239.513C5.20031 239.349 4.87111 239.134 4.57861 238.874C4.6297 238.772 6.20052 239.551 8.18641 240.362C9.03268 240.701 9.90097 240.983 10.7853 241.205C11.1641 241.274 11.5359 241.376 11.8964 241.512Z" fill="#FAA47C"/>
<path d="M7.50964 240.139C7.59265 240.139 7.4394 240.777 6.87109 241.333C6.30278 241.888 5.65785 241.971 5.63869 241.895C5.61954 241.818 6.14315 241.569 6.6476 241.09C7.15206 240.611 7.42024 240.1 7.50964 240.139Z" fill="#FAA47C"/>
<path d="M108.617 119.79C108.617 119.79 128.527 118.979 138.68 132.963C148.52 146.526 156.247 174.705 156.247 174.705L118.234 179.769L112.602 143.116L108.617 119.79Z" fill="#117CFF"/>
<path d="M140.64 230.414C140.577 230.414 140.315 229.168 139.529 227.272C139.319 226.754 139.082 226.246 138.821 225.752C138.559 225.209 138.22 224.66 137.875 224.079C137.088 222.839 136.19 221.672 135.194 220.593C134.178 219.529 133.072 218.557 131.886 217.687C131.324 217.304 130.8 216.927 130.27 216.64C129.795 216.344 129.305 216.073 128.802 215.829C126.956 214.922 125.718 214.584 125.743 214.514C126.039 214.561 126.33 214.636 126.611 214.737C126.952 214.831 127.287 214.944 127.614 215.076C127.997 215.229 128.438 215.382 128.891 215.618C129.407 215.85 129.91 216.111 130.398 216.397C130.941 216.685 131.477 217.036 132.046 217.438C134.5 219.153 136.571 221.36 138.125 223.92C138.463 224.513 138.801 225.075 139.05 225.631C139.306 226.135 139.534 226.653 139.734 227.182C139.938 227.661 140.066 228.115 140.193 228.511C140.321 228.907 140.404 229.245 140.468 229.526C140.558 229.814 140.616 230.112 140.64 230.414Z" fill="#FAA47C"/>
<path d="M112.602 143.104C112.602 143.104 112.685 143.27 112.819 143.582C112.953 143.895 113.151 144.4 113.394 144.987C113.86 146.213 114.479 148.008 115.118 150.268C116.704 156.175 117.96 162.165 118.879 168.211C120.022 175.28 120.833 181.71 121.433 186.365C121.714 188.664 121.944 190.541 122.072 191.876C122.142 192.514 122.199 193.006 122.238 193.376C122.268 193.549 122.28 193.725 122.276 193.9C122.226 193.731 122.192 193.558 122.174 193.383L121.944 191.895C121.759 190.56 121.491 188.702 121.171 186.391C120.533 181.748 119.684 175.325 118.541 168.262C117.398 161.2 116.127 154.853 114.882 150.332C114.281 148.071 113.694 146.264 113.266 145.032L112.749 143.608C112.686 143.444 112.636 143.276 112.602 143.104Z" fill="#263238"/>
<path d="M44.9924 149.049L41.1164 190.165L35.1779 179.693L4.57861 183.333C4.8915 184.897 15.7851 223.159 20.4785 233.778C25.1718 244.397 38.3004 263.298 52.9998 256.51C67.6992 249.723 66.7477 196.263 66.7477 190.165C66.7477 184.067 63.804 147.695 63.804 147.695" fill="#FFCAAF"/>
<path d="M63.8168 147.695C63.8168 147.695 63.8488 147.951 63.8935 148.449C63.9382 148.947 64.002 149.694 64.085 150.665C64.2447 152.619 64.4809 155.492 64.7874 159.183C65.0939 162.874 65.426 167.414 65.8219 172.669C66.0092 175.3 66.205 178.107 66.4093 181.091C66.5945 184.073 66.8308 187.228 66.8755 190.548C66.9329 197.189 66.8755 204.462 66.403 212.259C66.0132 220.563 65.01 228.827 63.4018 236.984C62.5461 241.413 61.1455 245.72 59.232 249.806C58.2349 251.933 56.8164 253.836 55.0623 255.399C54.6003 255.778 54.1044 256.114 53.5809 256.402C53.0504 256.676 52.5046 256.919 51.9462 257.13C51.3907 257.353 50.8096 257.5 50.2349 257.673C49.65 257.816 49.0573 257.924 48.4597 257.998C47.2554 258.148 46.0371 258.148 44.8328 257.998C43.6222 257.834 42.4323 257.543 41.2824 257.13C38.9789 256.256 36.8248 255.03 34.897 253.496C31.0016 250.317 27.6463 246.528 24.9611 242.277C23.4309 239.948 22.0633 237.515 20.868 234.998C19.6995 232.488 18.7481 229.889 17.8477 227.335C16.047 222.227 14.4251 217.118 12.867 212.112C11.309 207.106 9.8403 202.208 8.43549 197.425C7.03068 192.643 5.6578 187.956 4.44456 183.377L4.40625 183.218H4.57228L35.1715 179.597H35.2545L35.2992 179.667L41.2058 190.108L40.9887 190.159C42.2147 177.388 43.1981 167.126 43.8813 160.032C44.2262 156.494 44.5199 153.749 44.6795 151.884C44.7753 150.958 44.8455 150.25 44.8966 149.764C44.9477 149.279 44.9796 149.049 44.9796 149.049C44.9796 149.049 44.9796 149.292 44.9286 149.771C44.8775 150.25 44.8264 150.958 44.7434 151.884C44.5774 153.755 44.3283 156.501 44.009 160.045C43.3705 167.139 42.3999 177.42 41.2186 190.178V190.542L41.0334 190.223L35.0821 179.757L35.2098 179.821L4.61697 183.48L4.74468 183.301C5.95154 187.854 7.33719 192.547 8.742 197.349C10.1468 202.151 11.6282 207.055 13.2118 212.035C14.7954 217.016 16.4046 222.125 18.1925 227.239C19.0929 229.794 20.0443 232.348 21.2001 234.864C22.38 237.367 23.7305 239.786 25.2421 242.105C27.9032 246.325 31.2281 250.087 35.0885 253.247C36.9905 254.763 39.1167 255.974 41.391 256.836C42.5187 257.238 43.6849 257.523 44.8711 257.685C46.05 257.832 47.2425 257.832 48.4214 257.685C49.0036 257.613 49.5813 257.509 50.1519 257.372C50.7138 257.2 51.2885 257.053 51.8313 256.842C52.3763 256.636 52.9092 256.4 53.4276 256.134C53.931 255.851 54.4095 255.526 54.858 255.163C56.5767 253.627 57.9668 251.759 58.9447 249.672C60.8507 245.613 62.2469 241.334 63.1016 236.932C64.7099 228.787 65.7152 220.533 66.1092 212.24C66.569 204.456 66.6648 197.183 66.6201 190.529C66.5881 187.215 66.3519 184.061 66.1795 181.079C66.007 178.097 65.7899 175.287 65.6175 172.656C65.2344 167.401 64.9087 162.874 64.6342 159.17C64.3596 155.466 64.1489 152.599 63.9956 150.645C63.9254 149.675 63.8679 148.934 63.836 148.43C63.8041 147.925 63.8168 147.695 63.8168 147.695Z" fill="#FAA47C"/>
<path d="M41.027 189.1C41.0322 189.264 41.0215 189.429 40.9951 189.591C40.9504 189.904 40.9312 190.383 40.8163 190.977C40.5372 192.676 40.1099 194.346 39.5392 195.97C38.6864 198.376 37.6489 200.711 36.4358 202.956C35.0949 205.51 33.4729 208.211 31.7936 211.066C30.196 213.734 28.7547 216.493 27.477 219.329C26.4386 221.641 25.6426 224.055 25.1016 226.531C24.745 228.211 24.561 229.923 24.5524 231.64C24.5524 232.246 24.5844 232.712 24.5844 233.032C24.597 233.195 24.597 233.36 24.5844 233.523C24.5443 233.365 24.5229 233.202 24.5205 233.038C24.5205 232.719 24.4183 232.246 24.4247 231.64C24.3867 229.926 24.5366 228.213 24.8717 226.531C25.3819 224.028 26.1612 221.588 27.196 219.252C28.4606 216.399 29.9001 213.627 31.5062 210.951C33.1856 208.09 34.8139 205.389 36.1676 202.86C37.3788 200.618 38.4225 198.29 39.2901 195.894C39.8778 194.287 40.3369 192.637 40.663 190.958C40.7971 190.364 40.8418 189.898 40.8993 189.579C40.9278 189.415 40.9706 189.255 41.027 189.1Z" fill="#FAA47C"/>
<path d="M15.4532 142.248C14.6167 142.414 0.262117 149.049 0.357899 171.162C0.434525 187.668 4.85967 203.504 4.85967 203.504L39.4435 187.221L15.4532 142.248Z" fill="#117CFF"/>
<path d="M63.817 147.696C63.817 147.696 67.8909 143.488 67.8909 137.99C67.7762 134.237 67.0627 130.527 65.7773 127C65.7773 127 65.0941 121.253 64.6598 118.987L66.518 115.481C66.518 115.481 71.5881 117.703 72.431 114.427L69.449 110.341C68.7804 109.427 67.8249 108.764 66.7351 108.457L62.2653 107.18C61.485 106.96 60.6663 106.912 59.8659 107.04C59.0654 107.168 58.3023 107.468 57.6294 107.92L52.355 111.49L55.6308 104.728L61.1287 103.566C61.1287 103.566 68.9445 106.943 70.4259 102.506L63.8744 98.6743L51.4036 98.8914C51.4036 98.8914 48.5493 102.378 47.9171 103.431C47.2849 104.485 45.2224 108.125 45.2224 108.125L42.0999 100.054C42.0999 100.054 42.1957 94.9005 42.0999 90.6094C41.9658 85.8714 39.1817 84.2878 36.353 85.8714C36.072 86.0246 34.8013 98.7126 35.4335 101.675C36.0656 104.638 41.5252 126.624 41.5252 126.624C41.5252 126.624 43.4409 131.63 44.1752 133.105C45.2423 135.29 45.7762 137.697 45.7333 140.129C45.861 142.466 44.9734 149.707 44.9734 149.707" fill="#FFCAAF"/>
<path d="M44.9284 149.745C44.9284 149.745 44.9284 149.605 44.9284 149.337C44.9284 149.068 44.9986 148.647 45.0561 148.123C45.1646 147.057 45.3306 145.48 45.4775 143.43C45.5789 142.294 45.613 141.154 45.5797 140.014C45.5757 138.654 45.4128 137.3 45.0944 135.978C44.9206 135.247 44.6879 134.532 44.3984 133.839C44.0663 133.137 43.7023 132.396 43.3831 131.623C42.7445 130.072 42.106 128.43 41.41 126.668C40.5096 123.022 39.4943 119.005 38.4535 114.657C37.9171 112.477 37.3637 110.225 36.7932 107.901C36.5059 106.733 36.2185 105.551 35.9184 104.351C35.7716 103.744 35.6247 103.144 35.4778 102.531C35.4012 102.224 35.3182 101.924 35.2543 101.611C35.1905 101.299 35.1713 100.973 35.1458 100.647C35.0635 98.0225 35.1424 95.3953 35.3821 92.7803C35.4842 91.4393 35.5992 90.0856 35.746 88.7127C35.8226 88.0295 35.8993 87.3463 36.0078 86.6502C36.0078 86.4778 36.0589 86.3054 36.0972 86.1266C36.095 86.082 36.095 86.0372 36.0972 85.9925V85.9223V85.8776L36.1483 85.801C36.1676 85.7706 36.197 85.748 36.2313 85.7371H36.2952L36.4165 85.6796C36.7365 85.5125 37.0752 85.3839 37.4254 85.2965C38.1459 85.1023 38.91 85.1472 39.6029 85.4242C40.2884 85.73 40.8603 86.2439 41.2375 86.8929C41.94 88.2007 42.2713 89.6758 42.1954 91.1584C42.1954 94.0872 42.1954 97.0671 42.1954 100.098V100.034C43.1851 102.588 44.2451 105.328 45.3179 108.112H45.0177L47.7507 103.367C48.8107 101.797 50.0176 100.347 51.2181 98.8529L51.2628 98.7954H51.4224L53.7595 98.7507L63.8932 98.5847H63.9443H63.9826L70.5341 102.416L70.6491 102.486L70.5788 102.55C70.4374 102.994 70.2024 103.403 69.8895 103.749C69.5767 104.095 69.1934 104.37 68.7654 104.555C67.9221 104.881 67.0163 105.011 66.1154 104.938C64.3762 104.803 62.6704 104.387 61.0645 103.706H61.1603L55.6624 104.868L55.7709 104.785L52.4888 111.547L52.2653 111.349L57.6546 107.748C58.5677 107.169 59.6256 106.859 60.7069 106.854C61.2352 106.857 61.7611 106.928 62.2713 107.065L63.74 107.48L66.6326 108.297C67.6118 108.546 68.4986 109.071 69.1868 109.81C70.4001 111.356 71.4537 112.888 72.5456 114.357L72.5839 114.408V114.472C72.4318 115.081 72.0496 115.607 71.5175 115.94C70.9929 116.237 70.3952 116.378 69.7934 116.349C68.6559 116.31 67.5359 116.056 66.4921 115.602L66.6454 115.551C66.0068 116.828 65.3683 117.939 64.7872 119.05V118.974C65.2853 121.841 65.5854 124.523 65.8855 127C66.9487 129.931 67.627 132.988 67.9033 136.093C68.0346 137.349 68.0067 138.617 67.8203 139.867C67.6432 140.903 67.3498 141.917 66.9455 142.887C66.3906 144.214 65.6697 145.465 64.8 146.61C64.4999 146.999 64.2636 147.28 64.0976 147.466C64.0154 147.56 63.928 147.649 63.8358 147.734L64.072 147.446C64.2381 147.261 64.4616 146.968 64.7553 146.578C65.5995 145.423 66.3026 144.171 66.8497 142.849C67.239 141.88 67.5216 140.871 67.6926 139.841C67.8637 138.603 67.883 137.349 67.7501 136.106C67.453 133.021 66.7642 129.987 65.7003 127.077C65.3874 124.599 65.0618 121.917 64.5701 119.069V119.031V118.993L66.4219 115.487L66.473 115.391L66.5751 115.436C67.5881 115.863 68.6694 116.106 69.7679 116.151C70.3224 116.174 70.8726 116.044 71.3579 115.774C71.8322 115.472 72.1727 114.999 72.3093 114.453V114.568C71.2174 113.105 70.1319 111.541 68.9569 110.047C68.3052 109.346 67.4647 108.849 66.5368 108.616L63.6442 107.805C62.6908 107.47 61.6962 107.266 60.6877 107.199C59.6609 107.205 58.6564 107.499 57.7887 108.048L52.4185 111.656L51.9524 111.969L52.195 111.464L55.4708 104.696V104.625H55.5474L61.0389 103.457H61.09H61.1411C62.7253 104.1 64.4028 104.484 66.109 104.593C66.9597 104.665 67.8156 104.543 68.6121 104.236C68.9978 104.069 69.3433 103.821 69.6252 103.509C69.9072 103.198 70.1191 102.829 70.2468 102.429L70.317 102.627L63.7655 98.7954H63.8486L53.7148 98.9678L51.3777 99.0125L51.5054 98.9487C50.3177 100.43 49.0917 101.905 48.0636 103.419C47.1377 105.034 46.2246 106.611 45.337 108.157L45.1646 108.457L45.0433 108.131L41.9272 100.06V100.028C41.9272 97.0011 41.9272 94.0212 41.9272 91.0881C42.0049 89.6597 41.689 88.2372 41.014 86.9759C40.6737 86.3802 40.1526 85.9083 39.5262 85.6286C38.8962 85.3771 38.2016 85.3368 37.5467 85.5136C37.2162 85.5936 36.8967 85.7137 36.5953 85.8712L36.4804 85.9287H36.4229C36.474 86.0436 36.3207 85.7754 36.3654 85.852C36.4101 85.9287 36.4357 85.9414 36.4357 85.9287V85.9798C36.4327 86.0201 36.4327 86.0607 36.4357 86.1011C36.3973 86.2671 36.3718 86.4395 36.3463 86.6055C36.2441 87.2888 36.1675 87.9784 36.0908 88.6617C35.9376 90.0218 35.8163 91.3755 35.7141 92.7164C35.4771 95.3167 35.3939 97.9286 35.4651 100.539C35.4816 100.849 35.5178 101.159 35.5736 101.465C35.6311 101.771 35.7141 102.103 35.7843 102.384C35.9376 103.023 36.0845 103.597 36.2313 104.198C36.5165 105.407 36.8039 106.59 37.0934 107.748C37.6553 110.081 38.2023 112.335 38.7344 114.51C39.788 118.852 40.765 122.875 41.6462 126.528C42.2848 128.277 42.9233 129.937 43.5619 131.483C43.8811 132.262 44.2323 132.983 44.5708 133.705C44.8784 134.409 45.1283 135.137 45.3179 135.882C45.6323 137.215 45.7888 138.58 45.784 139.95C45.8098 141.097 45.7671 142.244 45.6563 143.385C45.4839 145.429 45.3051 147.006 45.1774 148.072C45.1093 148.596 45.0582 148.998 45.0241 149.279C44.9539 149.611 44.9284 149.745 44.9284 149.745Z" fill="#FAA47C"/>
<path d="M65.3495 108.635C64.8673 108.747 64.4015 108.921 63.9639 109.152C62.9605 109.821 62.0086 110.564 61.1159 111.374C60.0176 112.281 59.0151 113.085 58.2808 113.654C57.9015 113.99 57.486 114.284 57.042 114.529C57.3628 114.137 57.727 113.784 58.1275 113.475C58.8235 112.836 59.8069 112.025 60.9052 111.112C61.8113 110.289 62.7999 109.562 63.8553 108.941C64.3008 108.664 64.8308 108.555 65.3495 108.635Z" fill="#FAA47C"/>
<path d="M29.6351 158.742C29.7245 158.71 32.0361 165.083 34.801 172.976C37.5659 180.868 39.7434 187.285 39.654 187.317C39.5646 187.349 37.2594 180.977 34.4881 173.084C31.7168 165.192 29.5521 158.742 29.6351 158.742Z" fill="#263238"/>
</svg>
