<svg width="35" height="35" viewBox="0 0 35 35" fill="none" xmlns="http://www.w3.org/2000/svg">
<rect width="35" height="35" rx="2" fill="#CF3636" fill-opacity="0.25"/>
<path d="M12.375 12.375L13.1562 24.875C13.1934 25.5973 13.7187 26.125 14.4062 26.125H21.5938C22.284 26.125 22.7996 25.5973 22.8438 24.875L23.625 12.375" stroke="#F92828" stroke-width="1.5" stroke-linecap="round" stroke-linejoin="round"/>
<path d="M11.125 12.375H24.875H11.125Z" fill="#F92828"/>
<path d="M11.125 12.375H24.875" stroke="#F92828" stroke-width="1.5" stroke-miterlimit="10" stroke-linecap="round"/>
<path d="M15.5 12.375V10.8125C15.4996 10.6893 15.5236 10.5672 15.5706 10.4533C15.6176 10.3394 15.6867 10.2359 15.7738 10.1488C15.8609 10.0617 15.9644 9.99262 16.0783 9.94563C16.1922 9.89865 16.3143 9.87464 16.4375 9.875H19.5625C19.6857 9.87464 19.8078 9.89865 19.9217 9.94563C20.0356 9.99262 20.1391 10.0617 20.2262 10.1488C20.3133 10.2359 20.3824 10.3394 20.4294 10.4533C20.4764 10.5672 20.5004 10.6893 20.5 10.8125V12.375M18 14.875V23.625M15.1875 14.875L15.5 23.625M20.8125 14.875L20.5 23.625" stroke="#F92828" stroke-width="1.5" stroke-linecap="round" stroke-linejoin="round"/>
</svg>
