<svg width="30" height="30" viewBox="0 0 30 30" fill="none" xmlns="http://www.w3.org/2000/svg">
<path d="M16.8071 27.451C17.1586 27.0994 17.3561 26.6226 17.3561 26.1254C17.3561 25.6282 17.1586 25.1514 16.8071 24.7998L7.52585 15.5185L16.8071 6.23727C17.1486 5.88365 17.3376 5.41002 17.3334 4.9184C17.3291 4.42678 17.1319 3.9565 16.7843 3.60886C16.4366 3.26122 15.9663 3.06403 15.4747 3.05976C14.9831 3.05549 14.5095 3.24448 14.1559 3.58603L3.54897 14.1929C3.19747 14.5445 3 15.0213 3 15.5185C3 16.0157 3.19747 16.4925 3.54897 16.8441L14.1559 27.451C14.5075 27.8025 14.9843 28 15.4815 28C15.9787 28 16.4555 27.8025 16.8071 27.451Z" fill="#555555"/>
<path d="M25.5385 26.9706C25.8901 26.6189 26.0875 26.1421 26.0875 25.6449C26.0875 25.1477 25.8901 24.6709 25.5385 24.3193L16.2573 15.0381L25.5385 5.75681C25.8801 5.40318 26.0691 4.92955 26.0648 4.43793C26.0605 3.94631 25.8633 3.47604 25.5157 3.1284C25.1681 2.78075 24.6978 2.58356 24.2062 2.57929C23.7146 2.57502 23.2409 2.76401 22.8873 3.10556L12.2804 13.7124C11.9289 14.064 11.7314 14.5409 11.7314 15.0381C11.7314 15.5352 11.9289 16.0121 12.2804 16.3637L22.8873 26.9706C23.2389 27.3221 23.7157 27.5195 24.2129 27.5195C24.7101 27.5195 25.1869 27.3221 25.5385 26.9706Z" fill="#555555"/>
</svg>
