<svg width="35" height="35" viewBox="0 0 35 35" fill="none" xmlns="http://www.w3.org/2000/svg">
<rect width="35" height="35" rx="2" fill="#109CF1" fill-opacity="0.2"/>
<path d="M12.2917 22.7225L16.8886 22.7069L26.922 12.7694C27.3157 12.3757 27.5324 11.8527 27.5324 11.2965C27.5324 10.7402 27.3157 10.2173 26.922 9.82357L25.2699 8.17148C24.4824 7.38398 23.1084 7.38815 22.3272 8.16836L12.2917 18.1079V22.7225ZM23.797 9.6444L25.4522 11.2934L23.7886 12.9413L22.1365 11.2902L23.797 9.6444ZM14.3751 18.9767L20.6563 12.7548L22.3084 14.4069L16.0282 20.6267L14.3751 20.6319V18.9767Z" fill="#109CF1"/>
<path d="M10.2083 26.875H24.7917C25.9406 26.875 26.875 25.9406 26.875 24.7917V15.7625L24.7917 17.8458V24.7917H13.4979C13.4708 24.7917 13.4427 24.8021 13.4156 24.8021C13.3813 24.8021 13.3469 24.7927 13.3115 24.7917H10.2083V10.2083H17.3406L19.424 8.125H10.2083C9.05937 8.125 8.125 9.05937 8.125 10.2083V24.7917C8.125 25.9406 9.05937 26.875 10.2083 26.875Z" fill="#109CF1"/>
</svg>
