<svg width="119" height="106" viewBox="0 0 119 106" fill="none" xmlns="http://www.w3.org/2000/svg">
<g clip-path="url(#clip0_1_4561)">
<path d="M37.3062 105.726V70.7902C32.8641 68.8127 29.9027 64.1984 29.9027 59.5842V33.2173C29.9027 28.6031 32.8641 24.648 37.3062 22.0113V20.0338C37.3062 12.7829 30.643 6.85033 22.4992 6.85033C14.3553 6.85033 7.69219 12.7829 7.69219 20.0338C7.69219 27.2847 14.3553 33.2173 22.4992 33.2173H7.69219C3.99044 33.2173 0.288696 36.5131 0.288696 39.809V66.176C0.288696 69.4718 3.99044 72.7677 7.69219 72.7677V105.726H37.3062ZM111.341 33.2173H96.5341C104.678 33.2173 111.341 27.2847 111.341 20.0338C111.341 12.7829 104.678 6.85033 96.5341 6.85033C88.3903 6.85033 81.7271 12.7829 81.7271 20.0338V22.0113C86.1692 24.648 89.1306 28.6031 89.1306 33.2173V59.5842C89.1306 64.1984 86.1692 68.8127 81.7271 70.7902V105.726H111.341V72.7677C115.043 72.7677 118.745 69.4718 118.745 66.176V39.809C118.745 36.5131 115.043 33.2173 111.341 33.2173ZM74.3236 13.4421C74.3682 15.1977 74.0184 16.9436 73.2948 18.5772C72.5711 20.2108 71.4882 21.6992 70.1095 22.9551C68.7309 24.2109 67.0844 25.2089 65.2666 25.8904C63.4489 26.5719 61.4965 26.9232 59.5241 26.9236C57.5518 26.924 55.5992 26.5736 53.7811 25.8929C51.9629 25.2123 50.3158 24.215 48.9365 22.9598C47.5572 21.7046 46.4734 20.2166 45.7488 18.5833C45.0242 16.95 44.6735 15.2043 44.7171 13.4487C44.8026 10.0041 46.3993 6.72617 49.1654 4.31666C51.9314 1.90715 55.647 0.557503 59.5167 0.556641C63.3865 0.555779 67.1028 1.90377 69.8702 4.31205C72.6376 6.72033 74.2362 9.99752 74.3236 13.4421Z" fill="#109CF1"/>
<path d="M74.3237 26.625H44.7097C41.0079 26.625 37.3062 29.9209 37.3062 33.2167V59.5837C37.3062 62.8796 41.0079 66.1754 44.7097 66.1754V105.726H74.3237V66.1754C78.0254 66.1754 81.7271 62.8796 81.7271 59.5837V33.2167C81.7271 29.9209 78.0254 26.625 74.3237 26.625Z" fill="#109CF1"/>
</g>
<defs>
<clipPath id="clip0_1_4561">
<rect width="118.456" height="105.468" fill="white" transform="translate(0.288696 0.257812)"/>
</clipPath>
</defs>
</svg>
