<svg width="30" height="30" viewBox="0 0 30 30" fill="none" xmlns="http://www.w3.org/2000/svg">
<path d="M13 9.75V3H6.25C5.65326 3 5.08097 3.23705 4.65901 3.65901C4.23705 4.08097 4 4.65326 4 5.25V24.75C4 25.3467 4.23705 25.919 4.65901 26.341C5.08097 26.7629 5.65326 27 6.25 27H13.3855C12.3276 25.7216 11.6817 24.1527 11.533 22.5H10.75C10.5511 22.5 10.3603 22.421 10.2197 22.2803C10.079 22.1397 10 21.9489 10 21.75C10 21.5511 10.079 21.3603 10.2197 21.2197C10.3603 21.079 10.5511 21 10.75 21H11.533C11.5788 20.4925 11.6717 19.9903 11.8105 19.5H10.75C10.5511 19.5 10.3603 19.421 10.2197 19.2803C10.079 19.1397 10 18.9489 10 18.75C10 18.5511 10.079 18.3603 10.2197 18.2197C10.3603 18.079 10.5511 18 10.75 18H12.4C12.6745 17.463 13.006 16.9605 13.3855 16.5H10.75C10.5511 16.5 10.3603 16.421 10.2197 16.2803C10.079 16.1397 10 15.9489 10 15.75C10 15.5511 10.079 15.3603 10.2197 15.2197C10.3603 15.079 10.5511 15 10.75 15H15.0055C16.348 14.055 17.9845 13.5 19.75 13.5C20.5107 13.4993 21.2679 13.6038 22 13.8105V12H15.25C14.6533 12 14.081 11.7629 13.659 11.341C13.2371 10.919 13 10.3467 13 9.75ZM7 15.75C7 15.5511 7.07902 15.3603 7.21967 15.2197C7.36032 15.079 7.55109 15 7.75 15C7.94891 15 8.13968 15.079 8.28033 15.2197C8.42098 15.3603 8.5 15.5511 8.5 15.75C8.5 15.9489 8.42098 16.1397 8.28033 16.2803C8.13968 16.421 7.94891 16.5 7.75 16.5C7.55109 16.5 7.36032 16.421 7.21967 16.2803C7.07902 16.1397 7 15.9489 7 15.75ZM7 18.75C7 18.5511 7.07902 18.3603 7.21967 18.2197C7.36032 18.079 7.55109 18 7.75 18C7.94891 18 8.13968 18.079 8.28033 18.2197C8.42098 18.3603 8.5 18.5511 8.5 18.75C8.5 18.9489 8.42098 19.1397 8.28033 19.2803C8.13968 19.421 7.94891 19.5 7.75 19.5C7.55109 19.5 7.36032 19.421 7.21967 19.2803C7.07902 19.1397 7 18.9489 7 18.75ZM7.75 21C7.94891 21 8.13968 21.079 8.28033 21.2197C8.42098 21.3603 8.5 21.5511 8.5 21.75C8.5 21.9489 8.42098 22.1397 8.28033 22.2803C8.13968 22.421 7.94891 22.5 7.75 22.5C7.55109 22.5 7.36032 22.421 7.21967 22.2803C7.07902 22.1397 7 21.9489 7 21.75C7 21.5511 7.07902 21.3603 7.21967 21.2197C7.36032 21.079 7.55109 21 7.75 21Z" fill="#686868"/>
<path d="M14.5 9.75V3.375L21.625 10.5H15.25C15.0511 10.5 14.8603 10.421 14.7197 10.2803C14.579 10.1397 14.5 9.94891 14.5 9.75ZM26.5 21.75C26.5 23.5402 25.7888 25.2571 24.523 26.523C23.2571 27.7888 21.5402 28.5 19.75 28.5C17.9598 28.5 16.2429 27.7888 14.977 26.523C13.7112 25.2571 13 23.5402 13 21.75C13 19.9598 13.7112 18.2429 14.977 16.977C16.2429 15.7112 17.9598 15 19.75 15C21.5402 15 23.2571 15.7112 24.523 16.977C25.7888 18.2429 26.5 19.9598 26.5 21.75ZM20.5 17.25C20.5 17.0511 20.421 16.8603 20.2803 16.7197C20.1397 16.579 19.9489 16.5 19.75 16.5C19.5511 16.5 19.3603 16.579 19.2197 16.7197C19.079 16.8603 19 17.0511 19 17.25V21.75C19 21.9489 19.079 22.1397 19.2197 22.2803C19.3603 22.421 19.5511 22.5 19.75 22.5H22.75C22.9489 22.5 23.1397 22.421 23.2803 22.2803C23.421 22.1397 23.5 21.9489 23.5 21.75C23.5 21.5511 23.421 21.3603 23.2803 21.2197C23.1397 21.079 22.9489 21 22.75 21H20.5V17.25Z" fill="#686868"/>
</svg>
