<svg width="188" height="233" viewBox="0 0 188 233" fill="none" xmlns="http://www.w3.org/2000/svg">
<path d="M49.7336 121.07L42.0937 94.4271C38.4531 93.8389 35.3052 90.9333 34.2962 87.4143L28.5303 67.3062C27.5213 63.7873 28.7952 60.1578 31.4268 57.227L30.9943 55.7189C29.4087 50.1892 23.2991 47.0447 17.4174 48.7313C11.5356 50.4178 8.02065 56.3221 9.60628 61.8518C11.1919 67.3816 17.3016 70.526 23.1833 68.8394L12.4892 71.9059C9.81573 72.6725 7.86296 75.9526 8.5837 78.4662L14.3496 98.5743C15.0704 101.088 18.4646 102.835 21.1381 102.068L28.3455 127.203L49.7336 121.07ZM87.3475 50.4406L76.6535 53.5071C82.5352 51.8205 86.0502 45.9163 84.4645 40.3866C82.8789 34.8568 76.7693 31.7124 70.8875 33.399C65.0058 35.0855 61.4908 40.9898 63.0765 46.5195L63.5089 48.0276C67.2937 49.1185 70.2974 51.5214 71.3064 55.0403L77.0723 75.1485C78.0814 78.6674 76.9516 82.7996 74.1758 85.2277L81.8157 111.871L103.204 105.738L95.9964 80.6028C98.6699 79.8362 100.623 76.5561 99.9019 74.0426L94.136 53.9344C93.4152 51.4209 90.021 49.674 87.3475 50.4406ZM56.288 43.0257C56.7041 44.3554 56.8332 45.7592 56.6678 47.155C56.5024 48.5507 56.0458 49.91 55.3247 51.1533C54.6037 52.3965 53.6327 53.4986 52.4689 54.3948C51.3051 55.291 49.9718 55.9632 48.5475 56.372C47.1231 56.7808 45.6363 56.9179 44.1743 56.7753C42.7123 56.6328 41.3047 56.2134 40.034 55.5417C38.7633 54.8701 37.6552 53.9598 36.7747 52.8643C35.8942 51.7687 35.2591 50.5101 34.9067 49.1621C34.2152 46.5175 34.6516 43.687 36.1224 41.2766C37.5932 38.8662 39.9816 37.0674 42.7762 36.2654C45.5708 35.4633 48.5497 35.7217 51.075 36.9852C53.6004 38.2487 55.4715 40.4169 56.288 43.0257Z" fill="#109CF1"/>
<path d="M59.384 53.8241L37.9959 59.957C35.3224 60.7236 33.3699 64.0046 34.0909 66.519L39.8588 86.634C40.5798 89.1483 43.9742 90.8961 46.6478 90.1295L55.2996 120.302L76.6876 114.169L68.0358 83.9965C70.7093 83.2299 72.6619 79.9489 71.9409 77.4346L66.173 57.3196C65.452 54.8052 62.0575 53.0575 59.384 53.8241Z" fill="#109CF1"/>
<path d="M104.828 56.1774L108.206 83.6878C111.71 84.8383 114.365 88.2006 114.811 91.834L117.36 112.597C117.806 116.23 115.98 119.616 112.922 122.099L113.114 123.656C113.815 129.365 119.357 133.427 125.43 132.681C131.504 131.936 135.899 126.654 135.198 120.944C134.497 115.234 128.954 111.173 122.881 111.919L133.923 110.563C136.684 110.224 139.126 107.29 138.807 104.694L136.258 83.9318C135.939 81.3365 132.86 79.0801 130.099 79.4191L126.913 53.4658L104.828 56.1774ZM56.6286 120.053L67.6707 118.698C61.5976 119.443 57.2022 124.725 57.9033 130.435C58.6044 136.144 64.1469 140.206 70.22 139.46C76.2932 138.715 80.6885 133.433 79.9875 127.723L79.7963 126.166C76.2287 124.496 73.6379 121.653 73.1918 118.02L70.6424 97.2572C70.1963 93.6238 71.9586 89.7192 75.08 87.7552L71.7022 60.2448L49.618 62.9564L52.8047 88.9096C50.0441 89.2486 47.6023 92.1828 47.921 94.7782L50.4703 115.541C50.7889 118.136 53.8681 120.392 56.6286 120.053ZM86.1458 132.236C85.9428 130.858 86.0349 129.451 86.4166 128.098C86.7983 126.745 87.462 125.474 88.3686 124.359C89.2753 123.244 90.4067 122.307 91.6964 121.604C92.9861 120.901 94.408 120.446 95.8788 120.265C97.3496 120.084 98.8396 120.181 100.261 120.551C101.683 120.92 103.008 121.555 104.158 122.417C105.308 123.279 106.26 124.351 106.958 125.571C107.656 126.791 108.087 128.133 108.224 129.52C108.493 132.24 107.619 134.967 105.79 137.118C103.96 139.269 101.319 140.672 98.4337 141.027C95.548 141.382 92.6463 140.661 90.3497 139.018C88.0531 137.375 86.5441 134.94 86.1458 132.236Z" fill="#109CF1"/>
<path d="M84.7771 121.087L106.861 118.375C109.622 118.036 112.064 115.101 111.745 112.505L109.195 91.7352C108.876 89.139 105.797 86.8818 103.036 87.2207L99.2107 56.0663L77.1266 58.7779L80.9519 89.9323C78.1913 90.2713 75.7496 93.2064 76.0684 95.8026L78.6185 116.572C78.9373 119.168 82.0166 121.426 84.7771 121.087Z" fill="#109CF1"/>
<path d="M5 70.3242H158.916L142.994 232.202H22.9127L5 70.3242Z" fill="#505784"/>
<rect x="117.08" y="86.2754" width="14.5955" height="129.085" rx="7.29776" transform="rotate(4.5 117.08 86.2754)" fill="#333A74"/>
<rect x="73.9971" y="86.5" width="14.5955" height="129.085" rx="7.29776" transform="rotate(-1 73.9971 86.5)" fill="#333A74"/>
<rect x="32.8643" y="87.3906" width="14.5955" height="129.085" rx="7.29776" transform="rotate(-4.5 32.8643 87.3906)" fill="#333A74"/>
<path d="M36.9565 4.47468C38.1886 2.00338 41.1909 0.998848 43.6622 2.23099L183.525 71.9642C185.997 73.1963 187.001 76.1986 185.769 78.6699L179.023 92.2012L30.21 18.006L36.9565 4.47468Z" fill="#3F4579"/>
<path fill-rule="evenodd" clip-rule="evenodd" d="M104.016 9.12512C99.0733 6.66084 93.0688 8.6699 90.6045 13.6125L85.4658 23.9191L136.818 49.5223L141.956 39.2156C144.421 34.273 142.412 28.2686 137.469 25.8043L104.016 9.12512ZM104.514 20.1667C102.043 18.9345 99.0408 19.9391 97.8087 22.4103L94.8099 28.4249L128.605 45.2745L131.604 39.2599C132.836 36.7886 131.831 33.7864 129.36 32.5543L104.514 20.1667Z" fill="#505776"/>
</svg>
