<svg width="183" height="233" viewBox="0 0 183 233" fill="none" xmlns="http://www.w3.org/2000/svg">
<path d="M57.4145 82.6516L57.2636 83.1778C57.2052 83.3812 57.1938 83.5959 57.2301 83.8098C57.2665 84.0236 57.3498 84.2323 57.4754 84.424C57.601 84.6157 57.7664 84.7866 57.9621 84.9269C58.1578 85.0672 58.38 85.1742 58.6159 85.2417L77.3437 90.6118C77.5796 90.6796 77.8248 90.7066 78.0651 90.6913C78.3054 90.676 78.5362 90.6188 78.7443 90.5227C78.9523 90.4267 79.1336 90.2939 79.2778 90.1318C79.4219 89.9697 79.5261 89.7816 79.5843 89.5781L87.5914 61.6539L42.9502 48.8532L35.5387 74.7C35.421 75.1106 35.4972 75.5587 35.7506 75.9457C36.004 76.3326 36.4139 76.6269 36.8901 76.7637L57.4145 82.6516Z" fill="#8987FD"/>
<path d="M44.5964 49.0186L85.6916 60.8025L78.394 86.252L37.2989 74.4681L44.5964 49.0186Z" fill="white"/>
<path d="M59.6035 77.4202L60.7205 76.0259L79.9455 81.5386C80.1814 81.6063 80.4266 81.6334 80.6669 81.6181C80.9072 81.6028 81.138 81.5455 81.3461 81.4495C81.5542 81.3535 81.7354 81.2206 81.8796 81.0586C82.0237 80.8965 82.1279 80.7083 82.1861 80.5049L87.8397 60.7882C87.898 60.5848 87.9093 60.3701 87.8729 60.1564C87.8365 59.9426 87.7531 59.734 87.6275 59.5424C87.5019 59.3508 87.3365 59.18 87.1409 59.0397C86.9452 58.8995 86.7231 58.7926 86.4872 58.725L45.4379 46.9543C44.9617 46.8178 44.4582 46.8499 44.0383 47.0437C43.6183 47.2374 43.3162 47.5769 43.1985 47.9875L36.7978 70.3095C36.68 70.7201 36.7563 71.1681 37.0098 71.5549C37.2632 71.9418 37.6732 72.2358 38.1494 72.3724L57.6211 77.9558C57.9902 78.062 58.3785 78.0676 58.7332 77.9717C59.088 77.8759 59.3919 77.6833 59.6035 77.4202Z" fill="#4C5BE7"/>
<path d="M43.1983 47.9888L39.5131 60.8405C54.8895 53.9994 77.1985 57.385 87.6471 59.577C87.5232 59.3776 87.3565 59.1993 87.1571 59.0531C86.9576 58.9069 86.7297 58.7957 86.487 58.7264L45.4377 46.9556C44.9615 46.8191 44.458 46.8512 44.0381 47.045C43.6181 47.2388 43.316 47.5783 43.1983 47.9888Z" fill="#2A42BE"/>
<path d="M63.9671 75.6083L79.1506 79.9621C79.3412 80.0172 79.5393 80.0394 79.7335 80.0273C79.9278 80.0153 80.1144 79.9692 80.2827 79.8918C80.451 79.8144 80.5977 79.7072 80.7143 79.5763C80.831 79.4454 80.9153 79.2934 80.9624 79.129L81.758 76.3545C78.7719 77.1308 72.4623 77.3771 63.9748 75.6062L63.9671 75.6083Z" fill="#7479F5"/>
<path d="M85.6171 46.3508L85.6075 45.8034C85.6039 45.5918 85.552 45.3831 85.4548 45.1893C85.3575 44.9954 85.2168 44.8202 85.0406 44.6736C84.8645 44.527 84.6564 44.4119 84.4282 44.3349C84.2 44.258 83.9563 44.2206 83.7109 44.225L64.2313 44.565C63.9859 44.5692 63.7436 44.6151 63.5183 44.6999C63.2929 44.7848 63.0889 44.9071 62.918 45.0597C62.7471 45.2124 62.6126 45.3924 62.5221 45.5896C62.4317 45.7867 62.3871 45.9971 62.3909 46.2087L62.8979 75.2538L109.331 74.4433L108.862 47.559C108.854 47.1319 108.65 46.7257 108.295 46.4297C107.94 46.1337 107.462 45.9722 106.966 45.9806L85.6171 46.3508Z" fill="#8987FD"/>
<path d="M107.709 74.766L64.964 75.5121L64.502 49.041L107.247 48.2949L107.709 74.766Z" fill="white"/>
<path d="M85.0535 51.9936L84.393 53.6536L64.3963 54.0026C64.1509 54.0068 63.9086 54.0526 63.6832 54.1375C63.4579 54.2224 63.2539 54.3446 63.083 54.4973C62.9121 54.6499 62.7775 54.83 62.6871 55.0271C62.5966 55.2243 62.5521 55.4346 62.5559 55.6462L62.9138 76.1544C62.9175 76.3659 62.9695 76.5745 63.0669 76.7683C63.1642 76.962 63.3049 77.1372 63.4811 77.2837C63.6572 77.4302 63.8653 77.5452 64.0934 77.6221C64.3215 77.699 64.5651 77.7363 64.8105 77.7319L107.508 76.9866C108.003 76.978 108.475 76.8001 108.82 76.492C109.165 76.1839 109.354 75.7709 109.347 75.3439L108.942 52.1259C108.934 51.6988 108.73 51.2927 108.375 50.9968C108.019 50.701 107.541 50.5396 107.046 50.5483L86.7927 50.9018C86.4087 50.9081 86.0357 51.0164 85.7245 51.2117C85.4133 51.4071 85.179 51.6801 85.0535 51.9936Z" fill="#4C5BE7"/>
<path d="M109.347 75.3435L109.114 61.9759C96.4095 73.0137 74.0853 76.2985 63.4525 77.2572C63.6292 77.4117 63.8408 77.5334 64.0742 77.6149C64.3077 77.6965 64.5582 77.7361 64.8105 77.7315L107.508 76.9862C108.003 76.9776 108.475 76.7996 108.82 76.4916C109.165 76.1835 109.355 75.7705 109.347 75.3435Z" fill="#2A42BE"/>
<path d="M81.4102 55.0026L65.6172 55.2783C65.4189 55.2813 65.2229 55.3181 65.0407 55.3864C64.8584 55.4547 64.6934 55.5533 64.5551 55.6765C64.4168 55.7998 64.3079 55.9452 64.2346 56.1044C64.1613 56.2637 64.1252 56.4337 64.1282 56.6047L64.1785 59.4906C66.8071 57.8752 72.769 55.7949 81.4035 55.0069L81.4102 55.0026Z" fill="#7479F5"/>
<path d="M29.889 59.6203L29.8795 59.073C29.8759 58.8614 29.824 58.6527 29.7267 58.4588C29.6295 58.2649 29.4887 58.0897 29.3126 57.9431C29.1365 57.7965 28.9283 57.6814 28.7002 57.6045C28.472 57.5275 28.2282 57.4902 27.9828 57.4946L8.50329 57.8346C8.25788 57.8387 8.01557 57.8846 7.79022 57.9695C7.56488 58.0543 7.36091 58.1766 7.18999 58.3292C7.01907 58.4819 6.88454 58.6619 6.7941 58.8591C6.70365 59.0562 6.65907 59.2666 6.66289 59.4782L7.16987 88.5234L53.6031 87.7129L53.1338 60.8286C53.1263 60.4015 52.9225 59.9952 52.567 59.6993C52.2115 59.4033 51.7335 59.2417 51.2381 59.2502L29.889 59.6203Z" fill="#8987FD"/>
<path d="M51.9807 88.0355L9.23598 88.7816L8.77393 62.3105L51.5187 61.5644L51.9807 88.0355Z" fill="white"/>
<path d="M29.3255 65.2632L28.665 66.9231L8.66826 67.2721C8.42284 67.2763 8.18053 67.3221 7.95519 67.407C7.72984 67.4919 7.52588 67.6142 7.35495 67.7668C7.18403 67.9195 7.0495 68.0995 6.95906 68.2966C6.86861 68.4938 6.82403 68.7042 6.82785 68.9158L7.18582 89.4239C7.18951 89.6354 7.24151 89.844 7.33883 90.0378C7.43616 90.2316 7.5769 90.4067 7.75304 90.5532C7.92917 90.6997 8.13723 90.8147 8.36534 90.8916C8.59344 90.9685 8.83712 91.0058 9.08245 91.0015L51.7796 90.2562C52.2749 90.2475 52.7469 90.0696 53.0919 89.7615C53.4369 89.4534 53.6265 89.0404 53.619 88.6134L53.2137 65.3954C53.2063 64.9683 53.0024 64.5622 52.6469 64.2664C52.2914 63.9705 51.8134 63.8092 51.3181 63.8178L31.0647 64.1713C30.6807 64.1777 30.3077 64.2859 29.9965 64.4813C29.6853 64.6766 29.451 64.9497 29.3255 65.2632Z" fill="#4C5BE7"/>
<path d="M53.6191 88.613L53.3857 75.2454C40.6814 86.2832 18.3573 89.5681 7.72443 90.5267C7.90119 90.6812 8.11274 90.8029 8.34621 90.8845C8.57967 90.966 8.83018 91.0057 9.0825 91.001L51.7796 90.2558C52.2749 90.2471 52.747 90.0692 53.0919 89.7611C53.4369 89.453 53.6265 89.04 53.6191 88.613Z" fill="#2A42BE"/>
<path d="M25.6822 68.2722L9.88918 68.5478C9.69083 68.5509 9.49492 68.5876 9.31267 68.6559C9.13041 68.7243 8.9654 68.8229 8.82708 68.9461C8.68876 69.0693 8.57985 69.2147 8.50659 69.374C8.43332 69.5332 8.39715 69.7033 8.40013 69.8743L8.45051 72.7602C11.0791 71.1447 17.041 69.0644 25.6755 68.2765L25.6822 68.2722Z" fill="#7479F5"/>
<path d="M109.5 59.6183L109.491 59.071C109.487 58.8594 109.435 58.6507 109.338 58.4568C109.241 58.263 109.1 58.0877 108.924 57.9411C108.748 57.7946 108.54 57.6795 108.312 57.6025C108.083 57.5256 107.84 57.4882 107.594 57.4926L88.1146 57.8326C87.8692 57.8368 87.6269 57.8826 87.4016 57.9675C87.1762 58.0524 86.9722 58.1746 86.8013 58.3273C86.6304 58.4799 86.4959 58.66 86.4054 58.8571C86.315 59.0543 86.2704 59.2647 86.2742 59.4762L86.7812 88.5214L133.214 87.7109L132.745 60.8266C132.738 60.3995 132.534 59.9933 132.178 59.6973C131.823 59.4013 131.345 59.2398 130.849 59.2482L109.5 59.6183Z" fill="#F9DF5C"/>
<path d="M131.592 88.0335L88.8473 88.7796L88.3853 62.3086L131.13 61.5625L131.592 88.0335Z" fill="white"/>
<path d="M108.937 65.2612L108.276 66.9211L88.2796 67.2702C88.0342 67.2744 87.7919 67.3202 87.5665 67.4051C87.3412 67.49 87.1372 67.6122 86.9663 67.7649C86.7954 67.9175 86.6608 68.0976 86.5704 68.2947C86.4799 68.4918 86.4354 68.7022 86.4392 68.9138L86.7971 89.4219C86.8008 89.6335 86.8528 89.8421 86.9502 90.0358C87.0475 90.2296 87.1882 90.4047 87.3644 90.5513C87.5405 90.6977 87.7486 90.8127 87.9767 90.8897C88.2048 90.9666 88.4484 91.0039 88.6938 90.9995L131.391 90.2542C131.886 90.2456 132.358 90.0676 132.703 89.7596C133.048 89.4515 133.238 89.0385 133.23 88.6115L132.825 65.3934C132.818 64.9664 132.614 64.5603 132.258 64.2644C131.903 63.9686 131.425 63.8072 130.929 63.8159L110.676 64.1694C110.292 64.1757 109.919 64.2839 109.608 64.4793C109.297 64.6747 109.062 64.9477 108.937 65.2612Z" fill="#F3CC30"/>
<path d="M133.23 88.611L132.997 75.2435C120.293 86.2813 97.9686 89.5661 87.3358 90.5248C87.5125 90.6792 87.7241 90.801 87.9575 90.8825C88.191 90.9641 88.4415 91.0037 88.6938 90.9991L131.391 90.2538C131.886 90.2452 132.358 90.0672 132.703 89.7591C133.048 89.4511 133.238 89.0381 133.23 88.611Z" fill="#EDBD31"/>
<path d="M105.294 68.2702L89.5005 68.5459C89.3022 68.5489 89.1062 68.5856 88.924 68.654C88.7417 68.7223 88.5767 68.8209 88.4384 68.9441C88.3001 69.0673 88.1912 69.2127 88.1179 69.372C88.0447 69.5313 88.0085 69.7013 88.0115 69.8723L88.0618 72.7582C90.6904 71.1428 96.6523 69.0625 105.287 68.2745L105.294 68.2702Z" fill="#F6D738"/>
<path d="M46.4155 57.1394L46.6206 56.6318C46.7 56.4356 46.7337 56.2232 46.7199 56.0068C46.7062 55.7903 46.6451 55.574 46.5402 55.3703C46.4354 55.1665 46.2888 54.9793 46.1088 54.8193C45.9288 54.6593 45.719 54.5296 45.4914 54.4378L27.4276 47.1395C27.2 47.0475 26.9591 46.995 26.7185 46.9851C26.4779 46.9752 26.2424 47.008 26.0254 47.0817C25.8084 47.1555 25.6142 47.2686 25.4539 47.4148C25.2936 47.5609 25.1704 47.7371 25.0912 47.9334L14.2091 74.8677L57.2677 92.2645L67.3403 67.334C67.5003 66.938 67.4714 66.4844 67.2598 66.073C67.0482 65.6617 66.6714 65.3262 66.2121 65.1404L46.4155 57.1394Z" fill="#F9DF5C"/>
<path d="M55.6478 91.9274L16.0095 75.9125L25.9272 51.3652L65.5655 67.3801L55.6478 91.9274Z" fill="white"/>
<path d="M43.6916 62.1121L42.4351 63.382L23.8916 55.89C23.664 55.7979 23.4231 55.7454 23.1825 55.7355C22.9419 55.7256 22.7064 55.7584 22.4894 55.8322C22.2724 55.9059 22.0782 56.0191 21.9179 56.1652C21.7577 56.3113 21.6344 56.4876 21.5553 56.6838L13.8716 75.7015C13.7924 75.8977 13.7587 76.11 13.7726 76.3264C13.7865 76.5428 13.8476 76.759 13.9525 76.9627C14.0574 77.1664 14.204 77.3535 14.3839 77.5135C14.5638 77.6734 14.7735 77.803 15.0011 77.8948L54.5952 93.8918C55.0545 94.0774 55.5585 94.0981 55.9965 93.9493C56.4344 93.8005 56.7703 93.4944 56.9303 93.0984L65.6292 71.5677C65.7892 71.1717 65.7602 70.7182 65.5486 70.307C65.3369 69.8957 64.96 69.5604 64.5007 69.3749L45.7192 61.7866C45.3633 61.6425 44.9776 61.5963 44.6148 61.6546C44.252 61.7128 43.9297 61.8726 43.6916 62.1121Z" fill="#F3CC30"/>
<path d="M56.9302 93.0984L61.9386 80.7023C45.9314 85.8987 24.0984 80.1997 13.9363 76.9275C14.0386 77.1388 14.1858 77.3335 14.3688 77.4998C14.5519 77.6661 14.767 77.8005 15.001 77.8948L54.5951 93.8918C55.0544 94.0774 55.5585 94.0981 55.9964 93.9493C56.4343 93.8005 56.7702 93.4944 56.9302 93.0984Z" fill="#EDBD31"/>
<path d="M39.1629 63.46L24.5176 57.543C24.3338 57.4682 24.1391 57.4255 23.9447 57.4172C23.7502 57.4089 23.5598 57.4352 23.3843 57.4945C23.2089 57.5539 23.0518 57.6452 22.9221 57.7632C22.7924 57.8812 22.6927 58.0235 22.6286 58.1821L21.5474 60.8583C24.5983 60.3983 30.8991 60.8129 39.155 63.4614L39.1629 63.46Z" fill="#F6D738"/>
<path d="M0 70.3242H153.916L137.994 232.202H17.9127L0 70.3242Z" fill="#505784"/>
<rect x="112.08" y="86.2754" width="14.5955" height="129.085" rx="7.29776" transform="rotate(4.5 112.08 86.2754)" fill="#333A74"/>
<rect x="68.9971" y="86.5" width="14.5955" height="129.085" rx="7.29776" transform="rotate(-1 68.9971 86.5)" fill="#333A74"/>
<rect x="27.8643" y="87.3906" width="14.5955" height="129.085" rx="7.29776" transform="rotate(-4.5 27.8643 87.3906)" fill="#333A74"/>
<path d="M31.9565 4.47468C33.1886 2.00338 36.1909 0.998848 38.6622 2.23099L178.525 71.9642C180.997 73.1963 182.001 76.1986 180.769 78.6699L174.023 92.2012L25.21 18.006L31.9565 4.47468Z" fill="#3F4579"/>
<path fill-rule="evenodd" clip-rule="evenodd" d="M99.0158 9.12512C94.0733 6.66084 88.0688 8.6699 85.6045 13.6125L80.4658 23.9191L131.818 49.5223L136.956 39.2156C139.421 34.273 137.412 28.2686 132.469 25.8043L99.0158 9.12512ZM99.5143 20.1667C97.043 18.9345 94.0408 19.9391 92.8087 22.4103L89.8099 28.4249L123.605 45.2745L126.604 39.2599C127.836 36.7886 126.831 33.7864 124.36 32.5543L99.5143 20.1667Z" fill="#505776"/>
</svg>
